<svg width="32" height="33" viewBox="0 0 32 33" fill="none" xmlns="http://www.w3.org/2000/svg">
<g clip-path="url(#clip0)">
<path d="M16.3963 31.5924C24.4696 31.5924 31.0144 25.0476 31.0144 16.9741C31.0144 8.90077 24.4696 2.35596 16.3963 2.35596C8.32282 2.35596 1.77802 8.90077 1.77802 16.9741C1.77802 25.0476 8.32282 31.5924 16.3963 31.5924Z" stroke="#0D8570" stroke-width="1.44481" stroke-linecap="round" stroke-linejoin="round"/>
<path d="M24.4767 13.0083C23.3997 13.0083 22.3668 13.4361 21.6053 14.1976C20.8439 14.9592 20.416 15.992 20.416 17.0689C20.416 18.1459 20.8439 19.1787 21.6053 19.9403C22.3668 20.7017 23.3997 21.1296 24.4767 21.1296" stroke="#0D8570" stroke-width="1.44481" stroke-linecap="round" stroke-linejoin="round"/>
<path d="M8.31577 21.0619C9.3927 21.0619 10.4255 20.6341 11.187 19.8726C11.9486 19.1111 12.3764 18.0782 12.3764 17.0013C12.3764 15.9243 11.9486 14.8915 11.187 14.1299C10.4255 13.3685 9.3927 12.9407 8.31577 12.9407" stroke="#0D8570" stroke-width="1.44481" stroke-linecap="round" stroke-linejoin="round"/>
<path d="M16.3961 20.9401C18.6239 20.9401 20.4297 19.1343 20.4297 16.9067C20.4297 14.6789 18.6239 12.873 16.3961 12.873C14.1685 12.873 12.3626 14.6789 12.3626 16.9067C12.3626 19.1343 14.1685 20.9401 16.3961 20.9401Z" stroke="#0D8570" stroke-width="1.44481" stroke-linecap="round" stroke-linejoin="round"/>
</g>
<defs>
<clipPath id="clip0">
<rect width="32" height="32" fill="white" transform="translate(0 0.578125)"/>
</clipPath>
</defs>
</svg>
