<svg width="64" height="64" viewBox="0 0 64 64" fill="none" xmlns="http://www.w3.org/2000/svg">
<g clip-path="url(#clip0)">
<path d="M51.9753 58.8305V0H0V58.8305H51.9753Z" fill="#DCE9E1"/>
<path d="M46.9732 51.1153V7.71216H5.0061V51.1153H46.9732Z" stroke="#70B2A6" stroke-width="1.05071" stroke-miterlimit="10"/>
<path d="M5.20044 25.6702H46.4558" stroke="#70B2A6" stroke-width="1.05071" stroke-linecap="round" stroke-linejoin="round"/>
<path d="M5.22888 38.5367H46.4843" stroke="#70B2A6" stroke-width="1.05071" stroke-linecap="round" stroke-linejoin="round"/>
<path d="M15.5646 7.8772V50.9531" stroke="#70B2A6" stroke-width="1.05071" stroke-linecap="round" stroke-linejoin="round"/>
<path d="M25.9874 7.8772V50.9531" stroke="#70B2A6" stroke-width="1.05071" stroke-linecap="round" stroke-linejoin="round"/>
<path d="M36.4106 7.8772V50.9531" stroke="#70B2A6" stroke-width="1.05071" stroke-linecap="round" stroke-linejoin="round"/>
<path d="M47.5761 6.41821H4.35791V14.4606H47.5761V6.41821Z" fill="#70B2A6"/>
<path d="M63.6143 46.072C55.8396 34.6253 41.7378 40.068 34.308 28.267L28.7341 45.0513C28.7611 45.9129 28.9172 46.7576 29.1926 47.5325C29.468 48.3073 29.8567 48.9957 30.3345 49.5543C33.4479 52.3371 37.2381 53.6341 40.8143 54.8589C46.9274 56.1707 53.8113 56.7022 57.8919 64.0151C59.6386 58.3232 61.5889 52.7615 63.7431 47.3298C63.7997 47.2384 63.8415 47.1315 63.8657 47.0162C63.8901 46.901 63.8963 46.78 63.8842 46.6611C63.872 46.5423 63.8416 46.4283 63.7952 46.3267C63.7486 46.2253 63.687 46.1384 63.6143 46.072Z" fill="#00856F"/>
<path d="M61.3284 46.8315C54.3724 37.5703 42.1896 42.2564 34.9433 33.0222L30.9152 45.6307C37.1179 54.4116 46.9645 51.7098 54.4947 56.7652C55.547 57.3655 56.6583 58.1522 57.1582 59.5691L61.4331 47.9483C61.516 47.7758 61.551 47.568 61.5318 47.3631C61.5126 47.1581 61.4403 46.9694 61.3284 46.8315Z" fill="#70B3A7"/>
<path d="M50.2614 44.0578C49.8902 41.2209 47.5825 40.9206 45.8643 41.1908C43.4124 41.2449 41.0741 44.5981 41.5981 48.0263C42.8797 55.1111 51.7199 50.6021 50.2614 44.0578Z" fill="#DCE9E2"/>
</g>
<defs>
<clipPath id="clip0">
<rect width="64" height="64" fill="white"/>
</clipPath>
</defs>
</svg>
