<svg width="64" height="64" viewBox="0 0 64 64" fill="none" xmlns="http://www.w3.org/2000/svg">
<path d="M41.9664 5.10852L37.5199 11.4364" stroke="#0D8570" stroke-width="0.867511" stroke-linecap="round" stroke-linejoin="round"/>
<path d="M31.1111 8.69754L29.8643 0.49585" stroke="#0D8570" stroke-width="0.867511" stroke-linecap="round" stroke-linejoin="round"/>
<path d="M42.0668 16.9587L49.9857 15.6674" stroke="#0D8570" stroke-width="0.867511" stroke-linecap="round" stroke-linejoin="round"/>
<path d="M63.471 47.0068C59.8694 45.7676 47.997 42.4462 40.5233 40.3146C37.8788 39.571 34.9688 39.2737 32.4033 40.2799C30.989 40.8351 29.7709 41.8142 28.5911 42.7858C27.6099 43.5863 26.8249 44.1589 25.8509 44.9669C25.0748 45.5741 24.1812 46.0006 23.2312 46.2174C22.2814 46.4343 21.2974 46.4364 20.3467 46.2236C19.3704 45.9981 17.1806 45.1206 16.1851 45.0116C16.014 44.9767 15.838 44.9778 15.6673 45.0148C15.4967 45.0519 15.3351 45.1241 15.1919 45.2273C14.9287 45.4602 14.8975 45.9708 15.2063 46.1394C14.3807 45.7874 10.0419 44.4291 9.18037 44.1837C7.17972 43.6236 6.37802 44.2433 6.177 44.8629C6.03819 45.2941 7.63441 46.0476 8.01013 46.2732C6.75613 45.7155 3.94181 44.8975 2.77635 44.6547C0.775693 44.2407 -0.674546 45.2767 0.325784 45.894C3.26933 47.7231 9.72123 51.7906 12.6504 53.647C9.11337 53.6297 6.09802 53.6916 3.50865 54.1825C1.72337 54.5294 1.12509 55.2878 0.924067 55.7687C0.905275 55.8195 0.897551 55.874 0.901444 55.9282C0.905337 55.9825 0.920752 56.0351 0.946589 56.0826C0.972424 56.1299 1.00804 56.1707 1.0509 56.2022C1.09375 56.2337 1.14278 56.2549 1.19449 56.2644C3.36506 56.6486 14.5147 58.6166 18.2264 59.0231C21.9382 59.4297 23.2903 59.4371 25.7624 58.9339C30.788 57.9077 35.938 54.2865 40.3605 50.7372C48.7987 55.8356 55.332 59.8188 62.54 63.9877C63.033 56.9659 63.0713 54.7426 63.471 47.0068Z" fill="#DCE9E2"/>
<path d="M25.2864 45.9012C22.3333 48.6103 19.543 50.8238 16.585 53.5328C16.1255 53.9542 15.6277 54.5986 15.9293 55.1489C16.0567 55.3476 16.2459 55.4954 16.4653 55.5678C17.3101 55.8924 18.2506 55.5678 19.0667 55.1638C21.3784 54.036 23.4221 52.3579 25.7794 51.3343C28.6943 50.0678 32.15 49.753 34.3947 47.443" stroke="#70B3A7" stroke-width="0.867511" stroke-linecap="round" stroke-linejoin="round"/>
<path d="M15.4812 46.4714C17.1755 47.2472 19.3676 48.3576 21.062 49.1334" stroke="#70B3A7" stroke-width="0.867511" stroke-linecap="round" stroke-linejoin="round"/>
<path d="M8.13684 46.677C12.0879 48.6971 14.5049 49.8992 18.2574 51.4805" stroke="#70B3A7" stroke-width="0.867511" stroke-linecap="round" stroke-linejoin="round"/>
<path d="M12.3109 53.937C13.4723 53.8577 14.6346 53.8329 15.7976 53.8626" stroke="#70B3A7" stroke-width="0.867511" stroke-linecap="round" stroke-linejoin="round"/>
<path d="M16.4791 15.0676C12.205 13.9201 7.3015 16.8027 6.05229 21.1798C4.80307 25.5571 6.99279 30.311 9.8813 33.8207C12.7698 37.3305 17.7092 41.554 21.3971 44.3796C24.8216 41.2268 26.8487 39.7173 30.2876 36.2002C33.5422 32.8714 36.4163 28.8635 37.0888 24.1765C37.4718 21.5095 37.0889 18.55 35.2988 16.5894C33.2934 14.3835 29.8615 13.9795 27.1622 15.1692C24.7068 16.2549 22.9741 18.3097 22.4117 20.6742C21.9324 19.3137 21.1426 18.0933 20.1096 17.1171C19.0766 16.1409 17.8311 15.4378 16.4791 15.0676Z" fill="#70B3A7"/>
</svg>
