<svg width="32" height="32" viewBox="0 0 32 32" fill="none" xmlns="http://www.w3.org/2000/svg">
<path d="M1.77802 30.1669L5.05357 28.7746C6.72604 29.407 8.47602 29.7308 10.2376 29.7337L18.5889 29.4553C19.8943 29.4102 21.1776 29.0605 22.3601 28.4272C23.5427 27.794 24.5993 26.891 25.4649 25.7736L30.1617 19.7098C31.3528 18.3486 31.2716 18.8744 29.9452 17.4667C29.4431 16.9273 28.78 16.627 28.0908 16.627C27.4017 16.627 26.7386 16.9273 26.2366 17.4667L22.0811 22.2003H21.7563C21.7125 21.5324 21.4527 20.9072 21.0271 20.4465C20.6016 19.986 20.0412 19.7233 19.4552 19.7098H13.7839C12.9525 19.7495 12.1278 19.5246 11.4017 19.0602C10.3285 18.4318 9.0888 18.2832 7.92491 18.6437C6.76102 19.0041 5.75652 19.8475 5.10772 21.0091C4.76554 21.6014 4.2987 22.086 3.75004 22.4185C3.20138 22.7508 2.58846 22.9206 1.96751 22.9119H1.77802" stroke="#0D8570" stroke-width="1.44481" stroke-linecap="round" stroke-linejoin="round"/>
<path d="M11.9974 23.9951H21.7564V22.5409C21.7636 22.1854 21.7094 21.8317 21.5969 21.5002C21.4845 21.1686 21.316 20.8656 21.101 20.6084C20.8861 20.3514 20.6289 20.145 20.3442 20.0015C20.0596 19.8581 19.7529 19.7801 19.4418 19.772H13.7976C12.9617 19.8138 12.1322 19.5888 11.4018 19.1222C10.4643 18.5709 9.3945 18.3862 8.35634 18.5964C7.08726 18.8589 5.95938 19.6812 5.21613 20.8858" stroke="#0D8570" stroke-width="1.44481" stroke-linecap="round" stroke-linejoin="round"/>
<path d="M21.6074 2.89497C20.1456 1.98228 18.1152 2.89497 16.8294 4.85953C15.5164 2.89497 13.4862 1.99777 12.0243 2.89497C11.6028 3.19917 11.2402 3.59873 10.9588 4.06907C10.6774 4.53939 10.4832 5.07054 10.3881 5.62986C10.293 6.18916 10.299 6.76479 10.4058 7.32133C10.5127 7.87786 10.718 8.40354 11.0092 8.86602C12.3627 11.4957 16.1798 14.5586 16.8971 15.0536C17.601 14.4967 21.4315 11.372 22.7038 8.71132C22.9712 8.24904 23.1554 7.73035 23.245 7.18568C23.3347 6.64101 23.3283 6.08136 23.2262 5.53956C23.124 4.99775 22.9283 4.48473 22.6503 4.03059C22.3723 3.57645 22.0178 3.19036 21.6074 2.89497Z" stroke="#0D8570" stroke-width="1.44481" stroke-linecap="round" stroke-linejoin="round"/>
</svg>
