<svg width="56" height="59" viewBox="0 0 56 59" fill="none" xmlns="http://www.w3.org/2000/svg">
<path d="M36.5507 1.02148H12.0455C9.24127 1.02148 6.96802 3.28821 6.96802 6.08437V41.0243C6.96802 43.8203 9.24127 46.0871 12.0455 46.0871H36.5507C39.3548 46.0871 41.6281 43.8203 41.6281 41.0243V6.08437C41.6281 3.28821 39.3548 1.02148 36.5507 1.02148Z" fill="#DCE9E1"/>
<path d="M13.7983 10.688H34.9971" stroke="#70B2A6" stroke-width="0.86741" stroke-linecap="round" stroke-linejoin="round"/>
<path d="M13.7983 18.6431H34.9971" stroke="#70B2A6" stroke-width="0.86741" stroke-linecap="round" stroke-linejoin="round"/>
<path d="M13.7983 26.5986H34.9971" stroke="#70B2A6" stroke-width="0.86741" stroke-linecap="round" stroke-linejoin="round"/>
<path d="M13.7983 34.5537H34.9971" stroke="#70B2A6" stroke-width="0.86741" stroke-linecap="round" stroke-linejoin="round"/>
<path d="M33.265 0H17.1641V3.57099H33.265V0Z" fill="#0B8470"/>
<path d="M54.8598 21.6121L32.5246 21.5576L32.451 51.5602L54.7864 51.6146L54.8598 21.6121Z" fill="#70B3A7"/>
<path d="M54.8599 21.6121L32.5246 21.5576L32.507 28.7727L54.8422 28.8272L54.8599 21.6121Z" stroke="#00856F" stroke-width="0.86741" stroke-linecap="round" stroke-linejoin="round"/>
<path d="M50.2297 32.8608L50.1862 46.7085" stroke="#0D8570" stroke-width="0.86741" stroke-linecap="round" stroke-linejoin="round"/>
<path d="M37.3319 21.7847V28.3417" stroke="#0E8671" stroke-width="0.86741" stroke-linecap="round" stroke-linejoin="round"/>
<path d="M43.8532 21.7251V28.4786" stroke="#0E8671" stroke-width="0.86741" stroke-linecap="round" stroke-linejoin="round"/>
<path d="M50.6262 21.7251V28.2273" stroke="#0E8671" stroke-width="0.86741" stroke-linecap="round" stroke-linejoin="round"/>
<path d="M6.71836 40.0208C4.21629 39.6918 1.46906 40.9552 0.458613 43.2582C-0.343333 45.0859 0.000358482 47.2382 0.893955 49.0133C1.78755 50.7886 3.18523 52.2576 4.55999 53.6993C6.67713 55.92 12.332 58.9998 12.332 58.9998C12.332 58.9998 16.3234 56.4432 18.0006 55.0199C20.2368 53.119 22.5441 51.1222 23.7288 48.4399C24.9134 45.7577 24.5926 42.1752 22.2166 40.4435C20.6745 39.3216 18.5322 39.2074 16.7542 39.9019C15.4229 40.439 13.4684 43.1806 12.277 43.1485C10.7693 43.1074 8.73699 40.2881 6.71836 40.0208Z" fill="#0B8470"/>
<path d="M12.4145 45.5591C12.4145 45.5591 10.8725 40.126 14.3827 36.2559" stroke="#0E8671" stroke-width="0.86741" stroke-linecap="round" stroke-linejoin="round"/>
<path d="M21.0958 43.4365C21.0958 43.4365 23.3711 48.616 12.3501 55.4152" stroke="white" stroke-width="0.86741" stroke-linecap="round" stroke-linejoin="round"/>
</svg>
