<svg width="56" height="68" viewBox="0 0 56 68" fill="none" xmlns="http://www.w3.org/2000/svg">
<g clip-path="url(#clip0)">
<path d="M6.00916 1.61846C6.00916 1.61846 6.83166 28.0085 7.03605 61.7102L54.3929 59.7213C54.3929 59.7213 52.0624 25.5373 52.0624 0.651367L6.00916 1.61846Z" fill="#70B3A7" stroke="white" stroke-width="1.08921" stroke-linecap="round" stroke-linejoin="round"/>
<path d="M0.525872 7.49805C0.525872 7.49805 -1.11916 32.7941 1.41319 67.9999L48.5059 67.1248C48.5059 67.1248 46.4097 32.5978 46.7237 7.91819L0.525872 7.49805Z" fill="#DCE9E2"/>
<path d="M34.3859 36.0762L7.42737 36.1334" stroke="#70B3A7" stroke-width="0.818953" stroke-linecap="round" stroke-linejoin="round"/>
<path d="M40.3979 39.3701L7.48743 39.9045" stroke="#70B3A7" stroke-width="0.818953" stroke-linecap="round" stroke-linejoin="round"/>
<path d="M39.1841 43.186L7.5498 43.6782" stroke="#70B3A7" stroke-width="0.818953" stroke-linecap="round" stroke-linejoin="round"/>
<path d="M22.8712 47.1519L7.6123 47.4502" stroke="#70B3A7" stroke-width="0.818953" stroke-linecap="round" stroke-linejoin="round"/>
<path d="M40.5823 50.687L7.67175 51.2215" stroke="#70B3A7" stroke-width="0.818953" stroke-linecap="round" stroke-linejoin="round"/>
<path d="M38.3616 54.3984L7.73413 54.9927" stroke="#70B3A7" stroke-width="0.818953" stroke-linecap="round" stroke-linejoin="round"/>
<path d="M40.1437 58.3638L7.79651 58.7665" stroke="#70B3A7" stroke-width="0.818953" stroke-linecap="round" stroke-linejoin="round"/>
<path d="M35.3454 62.0557L7.85596 62.538" stroke="#70B3A7" stroke-width="0.818953" stroke-linecap="round" stroke-linejoin="round"/>
<path d="M7.93138 22.9719C7.8561 22.9701 7.78119 22.9831 7.71096 23.0101C7.64072 23.0372 7.57651 23.0778 7.522 23.1296C7.46749 23.1815 7.42375 23.2435 7.39328 23.3121C7.36281 23.3809 7.3462 23.4548 7.3444 23.53C7.3426 23.605 7.35565 23.6798 7.3828 23.7499C7.40994 23.8198 7.45066 23.8839 7.50261 23.9383C7.55457 23.9926 7.61676 24.0363 7.68563 24.0667C7.75449 24.097 7.82868 24.1137 7.90396 24.1154C8.51192 24.13 9.11534 24.0076 9.6694 23.7575C10.2234 23.5075 10.7139 23.1361 11.1043 22.671C10.8705 22.3003 10.6902 21.8985 10.5684 21.4777C10.3066 21.9423 9.92272 22.327 9.45806 22.5902C8.99342 22.8536 8.46558 22.9855 7.93138 22.9719ZM10.8102 19.0835C10.9131 19.4048 10.9619 19.7408 10.9547 20.078C10.935 20.8 11.1069 21.5145 11.4532 22.149C11.5031 22.2385 11.5604 22.3329 11.6152 22.4174C11.6701 22.502 11.7274 22.584 11.7897 22.666C11.9747 22.9123 12.188 23.1358 12.4252 23.3323C13.2455 24.0178 14.3051 24.3505 15.3711 24.2572C16.4372 24.164 17.4224 23.6525 18.1106 22.835C17.8812 22.4595 17.7059 22.0535 17.5897 21.6294C17.3293 22.0963 16.9457 22.4831 16.4805 22.7482C16.0153 23.0133 15.4864 23.1464 14.9508 23.133C14.4153 23.1198 13.8937 22.9606 13.4424 22.6727C12.991 22.3849 12.6272 21.9793 12.3904 21.5001C12.3213 21.3636 12.2621 21.2223 12.2134 21.0774C12.1114 20.7561 12.0634 20.4199 12.0714 20.083C12.0859 19.3599 11.9097 18.6458 11.5604 18.012C11.5106 17.9201 11.4557 17.8281 11.3984 17.7435C11.3411 17.659 11.2862 17.5795 11.2264 17.495C10.8579 17.0152 10.3863 16.624 9.84631 16.3499C9.30629 16.0758 8.71157 15.926 8.10584 15.9113C8.03122 15.9095 7.95697 15.9224 7.88733 15.9492C7.8177 15.976 7.75404 16.0162 7.7 16.0676C7.64595 16.1189 7.60259 16.1805 7.57236 16.2485C7.54214 16.3166 7.52566 16.39 7.52386 16.4644C7.52206 16.5388 7.53497 16.6129 7.56188 16.6824C7.58877 16.7518 7.62911 16.8153 7.68061 16.8693C7.73211 16.9232 7.79374 16.9664 7.862 16.9965C7.93026 17.0267 8.0038 17.0431 8.07843 17.045C8.61356 17.0584 9.13482 17.2175 9.58595 17.5049C10.0371 17.7924 10.4009 18.1972 10.6382 18.6759C10.7053 18.81 10.7628 18.9487 10.8102 19.091V19.0835ZM22.1185 17.388C22.1958 17.3947 22.2736 17.3854 22.3472 17.3609C22.4208 17.3364 22.4886 17.2972 22.5464 17.2456C22.6041 17.194 22.6507 17.1311 22.6832 17.0607C22.7157 16.9906 22.7335 16.9143 22.7353 16.837C22.7372 16.7596 22.7232 16.6827 22.6942 16.611C22.6651 16.5392 22.6216 16.4741 22.5664 16.4198C22.5111 16.3654 22.4453 16.3229 22.373 16.2949C22.3007 16.267 22.2234 16.254 22.1459 16.2569C21.5384 16.2413 20.9352 16.3622 20.3808 16.6105C19.8264 16.8587 19.335 17.2282 18.943 17.6913C19.1785 18.0645 19.3582 18.4698 19.4765 18.8946C19.7401 18.4306 20.1251 18.0466 20.5904 17.784C21.0558 17.5212 21.5839 17.3895 22.1185 17.4029V17.388ZM17.8264 19.2551C17.9318 19.5758 17.9807 19.9123 17.9711 20.2496C17.9559 20.9729 18.133 21.6875 18.4844 22.3204C18.5336 22.4127 18.5878 22.5024 18.6465 22.589C18.6993 22.6749 18.7568 22.7578 18.8185 22.8376C19.1846 23.3194 19.6547 23.7128 20.194 23.9887C20.7335 24.2646 21.3282 24.4158 21.934 24.4312C22.0114 24.4378 22.0891 24.4285 22.1628 24.4041C22.2363 24.3796 22.3041 24.3403 22.362 24.2887C22.4197 24.2371 22.4663 24.1742 22.4988 24.1038C22.5313 24.0337 22.5491 23.9575 22.5509 23.8802C22.5527 23.8028 22.5387 23.7258 22.5096 23.6541C22.4807 23.5823 22.4372 23.5173 22.3819 23.4629C22.3267 23.4085 22.2609 23.3662 22.1886 23.3381C22.1163 23.3101 22.039 23.2971 21.9614 23.3C21.4257 23.2851 20.9041 23.125 20.4527 22.8367C20.0013 22.5486 19.6371 22.1431 19.3992 21.6641C19.333 21.5299 19.2762 21.3911 19.2297 21.2489C19.1255 20.928 19.0766 20.5918 19.0851 20.2546C19.1036 19.5325 18.9317 18.8184 18.5867 18.1836C18.5344 18.0941 18.4795 17.9996 18.4247 17.9151C18.3698 17.8306 18.31 17.7509 18.2477 17.6664C18.0654 17.425 17.8554 17.2055 17.622 17.0127C17.2153 16.6719 16.7453 16.4145 16.2387 16.2551C15.7322 16.0956 15.1991 16.0373 14.6699 16.0836C14.1408 16.1298 13.626 16.2795 13.1548 16.5242C12.6837 16.769 12.2655 17.1039 11.9243 17.5099C12.1602 17.8833 12.3415 18.2885 12.4626 18.7131C12.7229 18.2461 13.1064 17.859 13.5713 17.5937C14.0363 17.3285 14.5653 17.1952 15.1007 17.2082C15.6362 17.2213 16.158 17.3802 16.6094 17.6678C17.061 17.9554 17.425 18.3608 17.662 18.8399C17.7275 18.9742 17.7832 19.1129 17.829 19.2551" fill="#008071"/>
</g>
<defs>
<clipPath id="clip0">
<rect width="56" height="68" fill="white"/>
</clipPath>
</defs>
</svg>
