<svg width="56" height="44" viewBox="0 0 56 44" fill="none" xmlns="http://www.w3.org/2000/svg">
<g clip-path="url(#clip0)">
<path d="M54.5732 7.19385H11.1093C10.5364 7.19385 10.072 7.66299 10.072 8.24174V39.4193C10.072 39.998 10.5364 40.4672 11.1093 40.4672H54.5732C55.1461 40.4672 55.6105 39.998 55.6105 39.4193V8.24174C55.6105 7.66299 55.1461 7.19385 54.5732 7.19385Z" fill="#70B3A7"/>
<path d="M26.3818 6.82357C26.4319 5.65533 26.5788 4.49337 26.8209 3.34989C26.9938 2.55352 27.2341 1.71347 27.8582 1.20001C28.5459 0.676369 29.3811 0.388186 30.2422 0.37744C32.4239 0.309328 34.623 0.37744 36.8117 0.37744C38.4765 0.37744 39.308 2.0715 39.3841 2.88708L39.7801 7.1327" stroke="#0D8570" stroke-width="0.889101" stroke-linecap="round" stroke-linejoin="round"/>
<path d="M19.5875 43.2684H11.5676C10.5635 43.2684 9.59575 42.8882 8.85554 42.2027C8.11525 41.5173 7.65619 40.5766 7.56883 39.566L6.11664 22.7041H25.0885L23.5828 39.5817C23.4925 40.5892 23.0326 41.526 22.2933 42.2083C21.554 42.8905 20.5888 43.2687 19.5875 43.2684Z" fill="#00856F"/>
<path d="M24.4988 22.9591C24.4988 23.7834 20.5104 24.4349 15.5971 24.4139C14.1035 24.4139 12.6961 24.3388 11.4618 24.2252C8.63178 23.9633 6.70412 23.4568 6.70759 22.884C6.70759 22.0597 10.6959 21.4082 15.6092 21.4292C20.5225 21.4502 24.5022 22.1365 24.4988 22.9591Z" fill="#70B2A6" stroke="#0D8570" stroke-width="1.55593" stroke-linecap="round" stroke-linejoin="round"/>
<path d="M7.29901 27.3741C7.15379 24.1659 1.92416 23.2229 0.873037 26.6407C-0.660411 31.6355 8.00093 32.3847 8.26716 38.2807" stroke="#0D8570" stroke-width="1.7782" stroke-linecap="round" stroke-linejoin="round"/>
<path d="M40.4799 38.2001C40.4799 38.2001 30.5895 27.5188 29.8945 26.8237C28.9575 27.8995 27.915 28.9543 26.9762 30.0302C26.9433 30.0598 26.923 30.1011 26.9192 30.1455C26.9269 30.1836 26.947 30.218 26.9762 30.2432C27.3289 30.6182 27.6821 30.9942 28.036 31.3714L33.257 36.9356C34.5035 38.2647 37.2125 41.2878 37.2661 41.2913C37.3197 41.2948 39.5464 39.3423 40.4799 38.2001Z" fill="#DCE9E2"/>
<path d="M25.391 25.2715L26.1949 27.8353C26.812 27.3114 27.4154 26.7542 27.998 26.1849L25.391 25.2715Z" fill="#00856F"/>
<path d="M29.8722 26.8412L28.0068 26.1846C27.4242 26.7539 26.8209 27.3041 26.2036 27.835L26.9281 30.1455C28.0366 29.1669 29.025 28.0576 29.8722 26.8412Z" fill="white"/>
<path d="M40.48 38.2002C39.4427 39.248 38.2325 40.1947 37.2661 41.2914C38.0775 42.2698 38.9706 43.176 39.9354 44.0001C41.0419 43.0687 42.1119 42.0918 43.1458 41.0696L40.48 38.2002Z" fill="#00856F"/>
<path d="M41.0246 37.6465L36.4986 42.0405" stroke="#0D8570" stroke-width="0.889101" stroke-linecap="round" stroke-linejoin="round"/>
<path d="M11.5831 14.4766H54.2103" stroke="#0D8570" stroke-width="0.889101" stroke-linecap="round" stroke-linejoin="round"/>
<path d="M28.5564 14.7785V17.0838H36.2444V14.6562" stroke="#0D8570" stroke-width="0.889101" stroke-linecap="round" stroke-linejoin="round"/>
</g>
<defs>
<clipPath id="clip0">
<rect width="56" height="44" fill="white"/>
</clipPath>
</defs>
</svg>
